<?xml version="1.0" encoding="UTF-8" standalone="no"?><!DOCTYPE svg PUBLIC "-//W3C//DTD SVG 1.1//EN" "http://www.w3.org/Graphics/SVG/1.1/DTD/svg11.dtd"><svg width="100%" height="100%" viewBox="0 0 513 513" version="1.1" xmlns="http://www.w3.org/2000/svg" xmlns:xlink="http://www.w3.org/1999/xlink" xml:space="preserve" xmlns:serif="http://www.serif.com/" style="fill-rule:evenodd;clip-rule:evenodd;stroke-linejoin:round;stroke-miterlimit:1.41421;"><g><path d="M123.044,88.47l-60.045,0c-4.441,0 -8.042,3.601 -8.042,8.042l0,42.889c0,4.441 3.601,8.042 8.042,8.042l60.045,0c4.441,0 8.042,-3.601 8.042,-8.042l0,-42.889c0,-4.442 -3.601,-8.042 -8.042,-8.042Z" style="fill:#9baaab;fill-rule:nonzero;"/><path d="M341.144,138.147l-12.867,-81.489c-0.618,-3.908 -3.987,-6.787 -7.943,-6.787l-128.667,0c-3.957,0 -7.327,2.879 -7.943,6.787l-12.867,81.489c-0.367,2.324 0.301,4.69 1.829,6.478c1.528,1.787 3.761,2.818 6.114,2.818l154.401,0c2.351,0 4.586,-1.029 6.114,-2.818c1.528,-1.788 2.196,-4.155 1.829,-6.478Z" style="fill:#9baaab;fill-rule:nonzero;"/></g><path d="M191.667,49.87c-3.957,0 -7.327,2.879 -7.943,6.787l-12.867,81.489c-0.367,2.324 0.301,4.69 1.829,6.478c1.528,1.787 3.761,2.818 6.114,2.818l77.2,0l0,-97.572l-64.333,0Z" style="fill:#687f82;fill-rule:nonzero;"/><path d="M500.469,131.36l-488.937,0c-4.441,0 -8.042,3.601 -8.042,8.042l0,364.558c0,4.441 3.601,8.042 8.042,8.042l488.936,0c4.441,0 8.042,-3.601 8.042,-8.042l0,-364.559c0,-4.442 -3.6,-8.041 -8.041,-8.041Z" style="fill:#fd6a33;fill-rule:nonzero;"/><path d="M11.532,131.36c-4.441,0 -8.042,3.601 -8.042,8.042l0,364.558c0,4.441 3.601,8.042 8.042,8.042l244.468,0l0,-380.642l-244.468,0Z" style="fill:#f0353d;fill-rule:nonzero;"/><path d="M500.469,131.36l-488.937,0c-4.441,0 -8.042,3.601 -8.042,8.042l0,98.109l505.02,0l0,-98.109c0,-4.443 -3.6,-8.042 -8.041,-8.042Z" style="fill:#ffba7e;fill-rule:nonzero;"/><path d="M11.532,131.36c-4.441,0 -8.042,3.601 -8.042,8.042l0,98.109l252.51,0l0,-106.151l-244.468,0Z" style="fill:#ff8c29;fill-rule:nonzero;"/><path d="M157.355,380.117c-20.989,0 -38.064,17.075 -38.064,38.064c0,20.989 17.075,38.064 38.064,38.064c20.989,0 38.064,-17.075 38.064,-38.064c0,-20.989 -17.076,-38.064 -38.064,-38.064Z" style="fill:#cdd4d5;fill-rule:nonzero;"/><path d="M256,191.404c-73.017,0 -132.42,59.404 -132.42,132.42c0,73.016 59.404,132.42 132.42,132.42c73.016,0 132.42,-59.404 132.42,-132.42c0,-73.016 -59.403,-132.42 -132.42,-132.42Z" style="fill:#4acfd9;fill-rule:nonzero;"/><path d="M123.58,323.825c0,73.017 59.404,132.42 132.42,132.42l0,-264.841c-73.016,0 -132.42,59.403 -132.42,132.421Z" style="fill:#0295aa;fill-rule:nonzero;"/><path d="M256,234.294c-49.368,0 -89.531,40.164 -89.531,89.531c0,49.367 40.164,89.531 89.531,89.531c49.367,0 89.531,-40.164 89.531,-89.531c0,-49.367 -40.163,-89.531 -89.531,-89.531Z" style="fill:#9baaab;fill-rule:nonzero;"/><path d="M166.469,323.825c0,49.368 40.164,89.531 89.531,89.531l0,-179.062c-49.367,0 -89.531,40.163 -89.531,89.531Z" style="fill:#365558;fill-rule:nonzero;"/><g><path d="M256,381.189c-4.441,0 -8.042,-3.601 -8.042,-8.042c0,-4.441 3.601,-8.042 8.042,-8.042c11.248,0 21.769,-4.464 29.626,-12.568c3.091,-3.189 8.182,-3.267 11.371,-0.176c3.189,3.091 3.267,8.182 0.176,11.371c-10.912,11.257 -25.534,17.457 -41.173,17.457Z" style="fill:#fff;fill-rule:nonzero;"/><path d="M303.626,344.735c-0.695,0 -1.401,-0.091 -2.104,-0.281c-4.288,-1.16 -6.823,-5.576 -5.664,-9.862c0.944,-3.491 1.423,-7.114 1.423,-10.768c0,-22.762 -18.518,-41.281 -41.281,-41.281c-4.441,0 -8.042,-3.601 -8.042,-8.042c0,-4.441 3.601,-8.042 8.042,-8.042c31.631,0 57.364,25.733 57.364,57.364c0,5.072 -0.667,10.107 -1.981,14.967c-0.969,3.585 -4.215,5.945 -7.757,5.945Z" style="fill:#fff;fill-rule:nonzero;"/><path d="M203.896,117.957l6.095,-38.601l92.019,0l6.094,38.601l-104.208,0Z" style="fill:#fff;fill-rule:nonzero;"/><path d="M453.29,469.112c-4.441,0 -8.042,-3.601 -8.042,-8.042l0,-193.001c0,-4.441 3.601,-8.042 8.042,-8.042c4.441,0 8.042,3.601 8.042,8.042l0,193.001c0,4.441 -3.6,8.042 -8.042,8.042Z" style="fill:#fff;fill-rule:nonzero;"/><path d="M453.29,207.488c-4.441,0 -8.042,-3.601 -8.042,-8.042l0,-34.311c0,-4.441 3.601,-8.042 8.042,-8.042c4.441,0 8.042,3.601 8.042,8.042l0,34.311c0,4.441 -3.6,8.042 -8.042,8.042Z" style="fill:#fff;fill-rule:nonzero;"/></g></svg>