<?xml version="1.0" encoding="UTF-8" standalone="no"?><!DOCTYPE svg PUBLIC "-//W3C//DTD SVG 1.1//EN" "http://www.w3.org/Graphics/SVG/1.1/DTD/svg11.dtd"><svg width="100%" height="100%" viewBox="0 0 312 162" version="1.1" xmlns="http://www.w3.org/2000/svg" xmlns:xlink="http://www.w3.org/1999/xlink" xml:space="preserve" xmlns:serif="http://www.serif.com/" style="fill-rule:evenodd;clip-rule:evenodd;stroke-linejoin:round;stroke-miterlimit:1.41421;"><g id="Layer1"><rect x="0" y="0" width="312" height="162" style="fill:url(#_Linear1);"/><clipPath id="_clip2"><rect x="10" y="8.5" width="105" height="105"/></clipPath><g clip-path="url(#_clip2)"><path d="M113.356,9.377l-101.712,0c-0.908,0 -1.644,0.736 -1.644,1.644l0,99.958c0,0.908 0.736,1.644 1.644,1.644l101.712,0c0.908,0 1.644,-0.736 1.644,-1.644l0,-99.958c0,-0.908 -0.736,-1.644 -1.644,-1.644Z" style="fill:#e6eaea;fill-rule:nonzero;"/><path d="M113.356,9.377l-101.712,0c-0.908,0 -1.644,0.736 -1.644,1.644l0,22.688l105,0l0,-22.688c0,-0.908 -0.736,-1.644 -1.644,-1.644Z" style="fill:#9baaab;fill-rule:nonzero;"/><path d="M11.644,9.377c-0.908,0 -1.644,0.736 -1.644,1.644l0,99.958c0,0.908 0.736,1.644 1.644,1.644l50.856,0l0,-103.246l-50.856,0Z" style="fill:#cdd4d5;fill-rule:nonzero;"/><path d="M11.644,9.377c-0.908,0 -1.644,0.736 -1.644,1.644l0,22.688l52.5,0l0,-24.332l-50.856,0Z" style="fill:#687f82;fill-rule:nonzero;"/><path d="M64.254,14.638c-3.808,0 -6.905,3.097 -6.905,6.905c0,3.807 3.097,6.905 6.905,6.905c3.807,0 6.905,-3.098 6.905,-6.905c0,-3.808 -3.098,-6.905 -6.905,-6.905Z" style="fill:#4acfd9;fill-rule:nonzero;"/><path d="M44.964,14.638c-3.808,0 -6.905,3.097 -6.905,6.905c0,3.807 3.097,6.905 6.905,6.905c3.807,0 6.905,-3.098 6.905,-6.905c0,-3.808 -3.098,-6.905 -6.905,-6.905Z" style="fill:#ff8c29;fill-rule:nonzero;"/><path d="M25.673,14.638c-3.807,0 -6.905,3.097 -6.905,6.905c0,3.807 3.098,6.905 6.905,6.905c3.808,0 6.905,-3.098 6.905,-6.905c0,-3.808 -3.097,-6.905 -6.905,-6.905Z" style="fill:#f0353d;fill-rule:nonzero;"/><g><path d="M97.573,19.68l-19.29,0c-0.908,0 -1.644,-0.736 -1.644,-1.644c0,-0.909 0.736,-1.645 1.644,-1.645l19.29,0c0.908,0 1.644,0.736 1.644,1.645c0,0.908 -0.736,1.644 -1.644,1.644Z" style="fill:#fff;fill-rule:nonzero;"/><path d="M106.341,19.68l-3.507,0c-0.908,0 -1.644,-0.736 -1.644,-1.644c0,-0.909 0.736,-1.645 1.644,-1.645l3.507,0c0.908,0 1.645,0.736 1.645,1.645c0,0.908 -0.737,1.644 -1.645,1.644Z" style="fill:#fff;fill-rule:nonzero;"/></g><g><path d="M105.349,68.16l-16.659,-15.783c-0.957,-0.906 -2.209,-1.387 -3.526,-1.35c-1.317,0.036 -2.541,0.582 -3.447,1.539c-0.906,0.956 -1.385,2.208 -1.35,3.525c0.036,1.317 0.582,2.541 1.539,3.447l12.771,12.099l-12.668,11.334c-0.982,0.878 -1.563,2.087 -1.636,3.402c-0.073,1.315 0.371,2.581 1.249,3.562c0.935,1.045 2.275,1.644 3.677,1.644c0,0 0,0 0,0c1.214,0 2.382,-0.446 3.288,-1.257l16.659,-14.906c1.025,-0.916 1.623,-2.23 1.643,-3.605c0.019,-1.375 -0.542,-2.705 -1.54,-3.651Z" style="fill:#fd6a33;fill-rule:nonzero;"/><path d="M72.852,53.437c-2.357,-1.356 -5.378,-0.543 -6.735,1.813l-16.66,28.936c-1.357,2.356 -0.543,5.378 1.814,6.735c0.748,0.431 1.598,0.658 2.457,0.658c1.761,0 3.4,-0.947 4.278,-2.471l16.659,-28.935c0.658,-1.142 0.831,-2.472 0.489,-3.744c-0.343,-1.272 -1.16,-2.335 -2.302,-2.992Z" style="fill:#fd6a33;fill-rule:nonzero;"/></g><g><path d="M49.457,84.186c-1.357,2.356 -0.543,5.378 1.814,6.735c0.748,0.431 1.598,0.658 2.457,0.658c1.761,0 3.4,-0.947 4.278,-2.471l4.494,-7.806l0,-19.769l-13.043,22.653Z" style="fill:#f0353d;fill-rule:nonzero;"/><path d="M44.633,56.091c0.036,-1.317 -0.444,-2.569 -1.35,-3.525c-0.906,-0.957 -2.13,-1.503 -3.447,-1.539c-1.314,-0.036 -2.569,0.444 -3.526,1.35l-16.659,15.783c-0.998,0.945 -1.559,2.276 -1.54,3.65c0.02,1.375 0.618,2.689 1.643,3.606l16.66,14.906c0.906,0.811 2.073,1.257 3.287,1.257c0,0 0,0 0.001,0c1.402,0 2.742,-0.599 3.676,-1.644c1.813,-2.026 1.64,-5.151 -0.387,-6.964l-12.667,-11.334l12.771,-12.099c0.956,-0.906 1.502,-2.13 1.538,-3.447Z" style="fill:#f0353d;fill-rule:nonzero;"/></g></g></g><defs><linearGradient id="_Linear1" x1="0" y1="0" x2="1" y2="0" gradientUnits="userSpaceOnUse" gradientTransform="matrix(-135.719,1.66208e-14,-1.66208e-14,-135.719,312,81)"><stop offset="0" style="stop-color:#879ad8;stop-opacity:1"/><stop offset="1" style="stop-color:#3854ad;stop-opacity:1"/></linearGradient></defs></svg>